<?xml version="1.0" standalone="no"?>
<svg xmlns="http://www.w3.org/2000/svg" xmlns:xlink="http://www.w3.org/1999/xlink" width="1990pt" height="531pt" viewBox="0.00 0.00 1989.85 530.88">
<g id="graph0" class="graph" transform="translate(168.7509097186737,498.5553280763441) scale(0.7071067811865478)" data-name="">
<polygon fill="white" stroke="none" points="-4,4 -4,-526.88 1985.85,-526.88 1985.85,4 -4,4" style=""/>
<!-- button -->
<g id="node1" class="node" pointer-events="visible" data-name="button">

<polygon fill="none" stroke="black" points="1507.55,-367.02 1453.55,-367.02 1453.55,-331.02 1507.55,-331.02 1507.55,-367.02" style=""/>
<text text-anchor="middle" x="1480.55" y="-344.82" font-family="Times,serif" font-size="14.00" style="">button</text>
</g>
<!-- broadcaster -->
<g id="node4" class="node" pointer-events="visible" data-name="broadcaster">

<polygon fill="none" stroke="black" points="1442.57,-284.27 1362.53,-284.27 1362.53,-248.27 1442.57,-248.27 1442.57,-284.27" style=""/>
<text text-anchor="middle" x="1402.55" y="-262.07" font-family="Times,serif" font-size="14.00" style="">broadcaster</text>
</g>
<!-- button&#45;&#45;broadcaster -->
<g id="edge1" class="edge" data-name="button--broadcaster">

<path fill="none" stroke="black" d="M1464.01,-330.9C1450.86,-317.29 1432.55,-298.33 1419.33,-284.65" style=""/>
</g>
<!-- ls -->
<g id="node2" class="node" pointer-events="visible" data-name="ls">

<ellipse fill="none" stroke="black" cx="1875.55" cy="-349.02" rx="18" ry="18" style=""/>
<text text-anchor="middle" x="1875.55" y="-344.82" font-family="Times,serif" font-size="14.00" style="">ls</text>
</g>
<!-- zg -->
<g id="node11" class="node" pointer-events="visible" data-name="zg">

<ellipse fill="none" stroke="black" cx="1899.55" cy="-266.27" rx="20.3" ry="20.3" style=""/>
<text text-anchor="middle" x="1899.55" y="-262.07" font-family="Times,serif" font-size="14.00" style="">zg</text>
</g>
<!-- ls&#45;&#45;zg -->
<g id="edge3" class="edge" data-name="ls--zg">

<path fill="none" stroke="black" d="M1880.52,-331.29C1884.42,-318.17 1889.85,-299.91 1893.91,-286.24" style=""/>
</g>
<!-- gl -->
<g id="node42" class="node" pointer-events="visible" data-name="gl">

<polygon fill="none" stroke="black" points="1775.55,-201.52 1748.55,-183.52 1775.55,-165.52 1802.55,-183.52 1775.55,-201.52" style=""/>
<text text-anchor="middle" x="1775.55" y="-179.32" font-family="Times,serif" font-size="14.00" style="">gl</text>
</g>
<!-- ls&#45;&#45;gl -->
<g id="edge2" class="edge" data-name="ls--gl">

<path fill="none" stroke="black" d="M1869.8,-331.57C1861.94,-310.19 1846.62,-272.13 1827.55,-242.89 1815.39,-224.25 1797.47,-205.54 1786.16,-194.49" style=""/>
</g>
<!-- rz -->
<g id="node3" class="node" pointer-events="visible" data-name="rz">

<ellipse fill="none" stroke="black" cx="1616.55" cy="-349.02" rx="18.58" ry="18.58" style=""/>
<text text-anchor="middle" x="1616.55" y="-344.82" font-family="Times,serif" font-size="14.00" style="">rz</text>
</g>
<!-- rz&#45;&#45;broadcaster -->
<g id="edge6" class="edge" data-name="rz--broadcaster">

<path fill="none" stroke="black" d="M1603.3,-335.78C1598.86,-332.14 1593.71,-328.39 1588.55,-325.65 1563.15,-312.13 1489.46,-290.82 1442.82,-278.03" style=""/>
</g>
<!-- vm -->
<g id="node28" class="node" pointer-events="visible" data-name="vm">

<ellipse fill="none" stroke="black" cx="1527.55" cy="-266.27" rx="23.25" ry="23.25" style=""/>
<text text-anchor="middle" x="1527.55" y="-262.07" font-family="Times,serif" font-size="14.00" style="">vm</text>
</g>
<!-- rz&#45;&#45;vm -->
<g id="edge4" class="edge" data-name="rz--vm">

<path fill="none" stroke="black" d="M1603.03,-335.76C1587.37,-321.55 1561.55,-298.12 1544.55,-282.69" style=""/>
</g>
<!-- rz&#45;&#45;gl -->
<g id="edge5" class="edge" data-name="rz--gl">

<path fill="none" stroke="black" d="M1629.84,-335.35C1634,-331.86 1638.76,-328.31 1643.55,-325.65 1687.78,-301.08 1717.55,-327.12 1751.55,-289.65 1773.81,-265.1 1776.76,-224.24 1776.46,-201.36" style=""/>
</g>
<!-- fp -->
<g id="node7" class="node" pointer-events="visible" data-name="fp">

<ellipse fill="none" stroke="black" cx="1270.55" cy="-183.52" rx="19.16" ry="19.16" style=""/>
<text text-anchor="middle" x="1270.55" y="-179.32" font-family="Times,serif" font-size="14.00" style="">fp</text>
</g>
<!-- broadcaster&#45;&#45;fp -->
<g id="edge7" class="edge" data-name="broadcaster--fp">

<path fill="none" stroke="black" d="M1374.23,-247.95C1347.57,-231.63 1308.56,-207.77 1286.78,-194.45" style=""/>
</g>
<!-- kv -->
<g id="node25" class="node" pointer-events="visible" data-name="kv">

<ellipse fill="none" stroke="black" cx="946.55" cy="-183.52" rx="20.89" ry="20.89" style=""/>
<text text-anchor="middle" x="946.55" y="-179.32" font-family="Times,serif" font-size="14.00" style="">kv</text>
</g>
<!-- broadcaster&#45;&#45;kv -->
<g id="edge8" class="edge" data-name="broadcaster--kv">

<path fill="none" stroke="black" d="M1364.07,-247.78C1358.92,-245.9 1353.66,-244.2 1348.55,-242.89 1203.89,-205.94 1160.49,-238.4 1014.55,-206.89 997.78,-203.27 979.33,-197.05 965.89,-192.09" style=""/>
</g>
<!-- fd -->
<g id="node45" class="node" pointer-events="visible" data-name="fd">

<ellipse fill="none" stroke="black" cx="1402.55" cy="-183.52" rx="19.16" ry="19.16" style=""/>
<text text-anchor="middle" x="1402.55" y="-179.32" font-family="Times,serif" font-size="14.00" style="">fd</text>
</g>
<!-- broadcaster&#45;&#45;fd -->
<g id="edge9" class="edge" data-name="broadcaster--fd">

<path fill="none" stroke="black" d="M1402.55,-248.14C1402.55,-234.9 1402.55,-216.6 1402.55,-203.02" style=""/>
</g>
<!-- ql -->
<g id="node5" class="node" pointer-events="visible" data-name="ql">

<ellipse fill="none" stroke="black" cx="103.55" cy="-349.02" rx="18.6" ry="18.6" style=""/>
<text text-anchor="middle" x="103.55" y="-344.82" font-family="Times,serif" font-size="14.00" style="">ql</text>
</g>
<!-- bn -->
<g id="node17" class="node" pointer-events="visible" data-name="bn">

<ellipse fill="none" stroke="black" cx="152.55" cy="-266.27" rx="20.89" ry="20.89" style=""/>
<text text-anchor="middle" x="152.55" y="-262.07" font-family="Times,serif" font-size="14.00" style="">bn</text>
</g>
<!-- ql&#45;&#45;bn -->
<g id="edge10" class="edge" data-name="ql--bn">

<path fill="none" stroke="black" d="M113,-332.45C121.28,-318.79 133.32,-298.95 141.94,-284.75" style=""/>
</g>
<!-- hq -->
<g id="node26" class="node" pointer-events="visible" data-name="hq">

<ellipse fill="none" stroke="black" cx="54.55" cy="-266.27" rx="20.89" ry="20.89" style=""/>
<text text-anchor="middle" x="54.55" y="-262.07" font-family="Times,serif" font-size="14.00" style="">hq</text>
</g>
<!-- ql&#45;&#45;hq -->
<g id="edge11" class="edge" data-name="ql--hq">

<path fill="none" stroke="black" d="M94.1,-332.45C85.81,-318.79 73.77,-298.95 65.16,-284.75" style=""/>
</g>
<!-- gk -->
<g id="node46" class="node" pointer-events="visible" data-name="gk">

<polygon fill="none" stroke="black" points="252.55,-118.76 223.52,-100.76 252.55,-82.76 281.58,-100.76 252.55,-118.76" style=""/>
<text text-anchor="middle" x="252.55" y="-96.56" font-family="Times,serif" font-size="14.00" style="">gk</text>
</g>
<!-- ql&#45;&#45;gk -->
<g id="edge12" class="edge" data-name="ql--gk">

<path fill="none" stroke="black" d="M102.57,-330.09C101.54,-293.94 104.14,-211.4 144.55,-160.14 167.37,-131.18 208.67,-114.7 233.05,-107.06" style=""/>
</g>
<!-- bm -->
<g id="node6" class="node" pointer-events="visible" data-name="bm">

<ellipse fill="none" stroke="black" cx="597.55" cy="-349.02" rx="23.25" ry="23.25" style=""/>
<text text-anchor="middle" x="597.55" y="-344.82" font-family="Times,serif" font-size="14.00" style="">bm</text>
</g>
<!-- hr -->
<g id="node24" class="node" pointer-events="visible" data-name="hr">

<polygon fill="none" stroke="black" points="660.55,-284.27 633.55,-266.27 660.55,-248.27 687.55,-266.27 660.55,-284.27" style=""/>
<text text-anchor="middle" x="660.55" y="-262.07" font-family="Times,serif" font-size="14.00" style="">hr</text>
</g>
<!-- bm&#45;&#45;hr -->
<g id="edge13" class="edge" data-name="bm--hr">

<path fill="none" stroke="black" d="M611.53,-330.1C623.85,-314.3 641.43,-291.78 651.84,-278.43" style=""/>
</g>
<!-- jd -->
<g id="node34" class="node" pointer-events="visible" data-name="jd">

<ellipse fill="none" stroke="black" cx="566.55" cy="-183.52" rx="18.6" ry="18.6" style=""/>
<text text-anchor="middle" x="566.55" y="-179.32" font-family="Times,serif" font-size="14.00" style="">jd</text>
</g>
<!-- bm&#45;&#45;jd -->
<g id="edge15" class="edge" data-name="bm--jd">

<path fill="none" stroke="black" d="M593.37,-325.97C587.15,-293.2 575.6,-232.27 569.9,-202.22" style=""/>
</g>
<!-- fj -->
<g id="node47" class="node" pointer-events="visible" data-name="fj">

<ellipse fill="none" stroke="black" cx="473.55" cy="-183.52" rx="18" ry="18" style=""/>
<text text-anchor="middle" x="473.55" y="-179.32" font-family="Times,serif" font-size="14.00" style="">fj</text>
</g>
<!-- bm&#45;&#45;fj -->
<g id="edge14" class="edge" data-name="bm--fj">

<path fill="none" stroke="black" d="M579.41,-334.24C561.46,-320.37 535.56,-299.65 527.55,-289.65 504.98,-261.45 487.92,-222.34 479.46,-200.64" style=""/>
</g>
<!-- fp&#45;&#45;gk -->
<g id="edge17" class="edge" data-name="fp--gk">

<path fill="none" stroke="black" d="M1257.38,-169.25C1253.02,-165.64 1247.9,-162.18 1242.55,-160.14 1105.93,-108.02 731.5,-133.04 585.55,-124.14 470.46,-117.12 333.08,-107.49 277.61,-103.55" style=""/>
</g>
<!-- cc -->
<g id="node52" class="node" pointer-events="visible" data-name="cc">

<ellipse fill="none" stroke="black" cx="252.55" cy="-20.69" rx="19.72" ry="19.72" style=""/>
<text text-anchor="middle" x="252.55" y="-16.49" font-family="Times,serif" font-size="14.00" style="">cc</text>
</g>
<!-- fp&#45;&#45;cc -->
<g id="edge16" class="edge" data-name="fp--cc">

<path fill="none" stroke="black" d="M1256.84,-169.6C1252.53,-166.1 1247.58,-162.6 1242.55,-160.14 1100.9,-90.87 1053.2,-102.63 897.55,-77.39 653.19,-37.76 351.87,-25.09 272.47,-22.33" style=""/>
</g>
<!-- lk -->
<g id="node8" class="node" pointer-events="visible" data-name="lk">

<polygon fill="none" stroke="black" points="735.55,-367.02 708.55,-349.02 735.55,-331.02 762.55,-349.02 735.55,-367.02" style=""/>
<text text-anchor="middle" x="735.55" y="-344.82" font-family="Times,serif" font-size="14.00" style="">lk</text>
</g>
<!-- nc -->
<g id="node39" class="node" pointer-events="visible" data-name="nc">

<polygon fill="none" stroke="black" points="1049.55,-284.27 1021.05,-266.27 1049.55,-248.27 1078.04,-266.27 1049.55,-284.27" style=""/>
<text text-anchor="middle" x="1049.55" y="-262.07" font-family="Times,serif" font-size="14.00" style="">nc</text>
</g>
<!-- lk&#45;&#45;nc -->
<g id="edge18" class="edge" data-name="lk--nc">

<path fill="none" stroke="black" d="M751,-341.08C762.12,-336.28 777.55,-330 791.55,-325.65 877.5,-298.93 983.07,-278.9 1027.84,-270.98" style=""/>
</g>
<!-- lk&#45;&#45;gk -->
<g id="edge19" class="edge" data-name="lk--gk">

<path fill="none" stroke="black" d="M719.67,-341.38C697.36,-331.69 655.97,-312.33 624.55,-289.65 581.54,-258.6 574.45,-245.94 538.55,-206.89 520.42,-187.18 523.24,-174.36 500.55,-160.14 429.52,-115.63 327.76,-105.03 279.68,-102.52" style=""/>
</g>
<!-- xg -->
<g id="node9" class="node" pointer-events="visible" data-name="xg">

<ellipse fill="none" stroke="black" cx="1673.55" cy="-349.02" rx="20.89" ry="20.89" style=""/>
<text text-anchor="middle" x="1673.55" y="-344.82" font-family="Times,serif" font-size="14.00" style="">xg</text>
</g>
<!-- mz -->
<g id="node30" class="node" pointer-events="visible" data-name="mz">

<ellipse fill="none" stroke="black" cx="1629.55" cy="-266.27" rx="22.67" ry="22.67" style=""/>
<text text-anchor="middle" x="1629.55" y="-262.07" font-family="Times,serif" font-size="14.00" style="">mz</text>
</g>
<!-- xg&#45;&#45;mz -->
<g id="edge21" class="edge" data-name="xg--mz">

<path fill="none" stroke="black" d="M1663.78,-330.1C1656.74,-317.18 1647.26,-299.77 1640.05,-286.55" style=""/>
</g>
<!-- xg&#45;&#45;gl -->
<g id="edge20" class="edge" data-name="xg--gl">

<path fill="none" stroke="black" d="M1694.35,-344.38C1721.71,-338.35 1768.73,-323.43 1789.55,-289.65 1807.42,-260.65 1792.15,-218.66 1782.31,-197.6" style=""/>
</g>
<!-- xn -->
<g id="node51" class="node" pointer-events="visible" data-name="xn">

<ellipse fill="none" stroke="black" cx="1578.55" cy="-100.76" rx="20.89" ry="20.89" style=""/>
<text text-anchor="middle" x="1578.55" y="-96.56" font-family="Times,serif" font-size="14.00" style="">xn</text>
</g>
<!-- xg&#45;&#45;xn -->
<g id="edge22" class="edge" data-name="xg--xn">

<path fill="none" stroke="black" d="M1657.3,-335.47C1653.14,-332.26 1648.68,-328.82 1644.55,-325.65 1623.69,-309.61 1610.37,-312.62 1597.55,-289.65 1567.19,-235.25 1571.43,-158.1 1575.63,-121.94" style=""/>
</g>
<!-- dg -->
<g id="node10" class="node" pointer-events="visible" data-name="dg">

<ellipse fill="none" stroke="black" cx="376.55" cy="-349.02" rx="20.89" ry="20.89" style=""/>
<text text-anchor="middle" x="376.55" y="-344.82" font-family="Times,serif" font-size="14.00" style="">dg</text>
</g>
<!-- jk -->
<g id="node21" class="node" pointer-events="visible" data-name="jk">

<ellipse fill="none" stroke="black" cx="233.55" cy="-266.27" rx="18.6" ry="18.6" style=""/>
<text text-anchor="middle" x="233.55" y="-262.07" font-family="Times,serif" font-size="14.00" style="">jk</text>
</g>
<!-- dg&#45;&#45;jk -->
<g id="edge25" class="edge" data-name="dg--jk">

<path fill="none" stroke="black" d="M358.44,-337.79C330.18,-321.84 276.07,-291.28 249.32,-276.18" style=""/>
</g>
<!-- mp -->
<g id="node40" class="node" pointer-events="visible" data-name="mp">

<ellipse fill="none" stroke="black" cx="376.55" cy="-183.52" rx="23.25" ry="23.25" style=""/>
<text text-anchor="middle" x="376.55" y="-179.32" font-family="Times,serif" font-size="14.00" style="">mp</text>
</g>
<!-- dg&#45;&#45;mp -->
<g id="edge24" class="edge" data-name="dg--mp">

<path fill="none" stroke="black" d="M376.55,-327.64C376.55,-297 376.55,-239.23 376.55,-207.26" style=""/>
</g>
<!-- dg&#45;&#45;gk -->
<g id="edge23" class="edge" data-name="dg--gk">

<path fill="none" stroke="black" d="M387.09,-330.68C407.11,-295.25 445.51,-213.43 408.55,-160.14 379.21,-117.84 315.25,-106.14 279,-102.94" style=""/>
</g>
<!-- zg&#45;&#45;gl -->
<g id="edge26" class="edge" data-name="zg--gl">

<path fill="none" stroke="black" d="M1882.96,-254.32C1877.43,-250.68 1871.23,-246.6 1865.55,-242.89 1838.26,-225.07 1806.22,-204.33 1788.68,-193" style=""/>
</g>
<!-- hx -->
<g id="node59" class="node" pointer-events="visible" data-name="hx">

<ellipse fill="none" stroke="black" cx="1899.55" cy="-100.76" rx="20.89" ry="20.89" style=""/>
<text text-anchor="middle" x="1899.55" y="-96.56" font-family="Times,serif" font-size="14.00" style="">hx</text>
</g>
<!-- zg&#45;&#45;hx -->
<g id="edge27" class="edge" data-name="zg--hx">

<path fill="none" stroke="black" d="M1899.55,-245.55C1899.55,-214.29 1899.55,-153.69 1899.55,-122.07" style=""/>
</g>
<!-- lg -->
<g id="node12" class="node" pointer-events="visible" data-name="lg">

<ellipse fill="none" stroke="black" cx="601.55" cy="-426.95" rx="18.6" ry="18.6" style=""/>
<text text-anchor="middle" x="601.55" y="-422.75" font-family="Times,serif" font-size="14.00" style="">lg</text>
</g>
<!-- pt -->
<g id="node13" class="node" pointer-events="visible" data-name="pt">

<ellipse fill="none" stroke="black" cx="537.55" cy="-349.02" rx="18.6" ry="18.6" style=""/>
<text text-anchor="middle" x="537.55" y="-344.82" font-family="Times,serif" font-size="14.00" style="">pt</text>
</g>
<!-- lg&#45;&#45;pt -->
<g id="edge29" class="edge" data-name="lg--pt">

<path fill="none" stroke="black" d="M589.81,-412.02C578.26,-398.32 560.73,-377.53 549.21,-363.86" style=""/>
</g>
<!-- lg&#45;&#45;hr -->
<g id="edge28" class="edge" data-name="lg--hr">

<path fill="none" stroke="black" d="M610.71,-410.4C616.63,-399.91 624.2,-385.63 629.55,-372.4 642.17,-341.17 652.16,-302.87 657.12,-282.2" style=""/>
</g>
<!-- pt&#45;&#45;hr -->
<g id="edge30" class="edge" data-name="pt--hr">

<path fill="none" stroke="black" d="M551.53,-336.29C555.93,-332.75 560.86,-328.94 565.55,-325.65 593.26,-306.17 627.48,-286.04 646.36,-275.25" style=""/>
</g>
<!-- pt&#45;&#45;fj -->
<g id="edge31" class="edge" data-name="pt--fj">

<path fill="none" stroke="black" d="M524.24,-335.96C513.07,-325.02 497.67,-307.86 489.55,-289.65 476.61,-260.65 473.84,-223.16 473.41,-201.68" style=""/>
</g>
<!-- sp -->
<g id="node14" class="node" pointer-events="visible" data-name="sp">

<ellipse fill="none" stroke="black" cx="1689.55" cy="-266.27" rx="19.75" ry="19.75" style=""/>
<text text-anchor="middle" x="1689.55" y="-262.07" font-family="Times,serif" font-size="14.00" style="">sp</text>
</g>
<!-- sp&#45;&#45;gl -->
<g id="edge33" class="edge" data-name="sp--gl">

<path fill="none" stroke="black" d="M1703.75,-251.93C1720.83,-235.9 1749.13,-209.33 1764.6,-194.79" style=""/>
</g>
<!-- mj -->
<g id="node50" class="node" pointer-events="visible" data-name="mj">

<ellipse fill="none" stroke="black" cx="1775.55" cy="-100.76" rx="21.46" ry="21.46" style=""/>
<text text-anchor="middle" x="1775.55" y="-96.56" font-family="Times,serif" font-size="14.00" style="">mj</text>
</g>
<!-- sp&#45;&#45;mj -->
<g id="edge32" class="edge" data-name="sp--mj">

<path fill="none" stroke="black" d="M1697.13,-247.87C1706.47,-226.78 1723.13,-190.32 1739.55,-160.14 1747.17,-146.12 1756.68,-130.79 1764.01,-119.35" style=""/>
</g>
<!-- dd -->
<g id="node54" class="node" pointer-events="visible" data-name="dd">

<ellipse fill="none" stroke="black" cx="1682.55" cy="-100.76" rx="20.89" ry="20.89" style=""/>
<text text-anchor="middle" x="1682.55" y="-96.56" font-family="Times,serif" font-size="14.00" style="">dd</text>
</g>
<!-- sp&#45;&#45;dd -->
<g id="edge34" class="edge" data-name="sp--dd">

<path fill="none" stroke="black" d="M1688.73,-246.19C1687.4,-215.11 1684.78,-153.81 1683.41,-121.99" style=""/>
</g>
<!-- ms -->
<g id="node15" class="node" pointer-events="visible" data-name="ms">

<ellipse fill="none" stroke="black" cx="1959.55" cy="-266.27" rx="22.11" ry="22.11" style=""/>
<text text-anchor="middle" x="1959.55" y="-262.07" font-family="Times,serif" font-size="14.00" style="">ms</text>
</g>
<!-- ms&#45;&#45;gl -->
<g id="edge35" class="edge" data-name="ms--gl">

<path fill="none" stroke="black" d="M1942.37,-251.64C1938.01,-248.53 1933.23,-245.4 1928.55,-242.89 1888.38,-221.37 1875.09,-223.22 1832.55,-206.89 1818.85,-201.64 1803.36,-195.54 1791.98,-191.05" style=""/>
</g>
<!-- ms&#45;&#45;mj -->
<g id="edge37" class="edge" data-name="ms--mj">

<path fill="none" stroke="black" d="M1943.22,-250.76C1908.13,-219.57 1825.9,-146.51 1791.32,-115.78" style=""/>
</g>
<!-- ms&#45;&#45;hx -->
<g id="edge36" class="edge" data-name="ms--hx">

<path fill="none" stroke="black" d="M1952.19,-245.22C1940.55,-213.5 1918.03,-152.14 1906.59,-120.96" style=""/>
</g>
<!-- kj -->
<g id="node16" class="node" pointer-events="visible" data-name="kj">

<ellipse fill="none" stroke="black" cx="317.55" cy="-266.27" rx="18.6" ry="18.6" style=""/>
<text text-anchor="middle" x="317.55" y="-262.07" font-family="Times,serif" font-size="14.00" style="">kj</text>
</g>
<!-- fl -->
<g id="node19" class="node" pointer-events="visible" data-name="fl">

<ellipse fill="none" stroke="black" cx="317.55" cy="-183.52" rx="18" ry="18" style=""/>
<text text-anchor="middle" x="317.55" y="-179.32" font-family="Times,serif" font-size="14.00" style="">fl</text>
</g>
<!-- kj&#45;&#45;fl -->
<g id="edge38" class="edge" data-name="kj--fl">

<path fill="none" stroke="black" d="M317.55,-247.35C317.55,-233.78 317.55,-215.25 317.55,-201.83" style=""/>
</g>
<!-- kj&#45;&#45;mp -->
<g id="edge40" class="edge" data-name="kj--mp">

<path fill="none" stroke="black" d="M328.1,-250.83C337.91,-237.4 352.57,-217.34 363.19,-202.8" style=""/>
</g>
<!-- kj&#45;&#45;gk -->
<g id="edge39" class="edge" data-name="kj--gk">

<path fill="none" stroke="black" d="M309.6,-249.08C304.01,-237.45 296.49,-221.35 290.55,-206.89 277.41,-174.94 264.17,-136.6 257.32,-116.2" style=""/>
</g>
<!-- rj -->
<g id="node43" class="node" pointer-events="visible" data-name="rj">

<ellipse fill="none" stroke="black" cx="187.55" cy="-183.52" rx="18" ry="18" style=""/>
<text text-anchor="middle" x="187.55" y="-179.32" font-family="Times,serif" font-size="14.00" style="">rj</text>
</g>
<!-- bn&#45;&#45;rj -->
<g id="edge41" class="edge" data-name="bn--rj">

<path fill="none" stroke="black" d="M160.67,-246.54C166.72,-232.56 174.91,-213.67 180.65,-200.42" style=""/>
</g>
<!-- bn&#45;&#45;gk -->
<g id="edge42" class="edge" data-name="bn--gk">

<path fill="none" stroke="black" d="M149.07,-245.49C146.2,-223.1 144.81,-186.35 160.55,-160.14 177.1,-132.57 212.24,-115.87 233.98,-107.77" style=""/>
</g>
<!-- xc -->
<g id="node18" class="node" pointer-events="visible" data-name="xc">

<ellipse fill="none" stroke="black" cx="1181.55" cy="-349.02" rx="20.3" ry="20.3" style=""/>
<text text-anchor="middle" x="1181.55" y="-344.82" font-family="Times,serif" font-size="14.00" style="">xc</text>
</g>
<!-- nr -->
<g id="node41" class="node" pointer-events="visible" data-name="nr">

<polygon fill="none" stroke="black" points="1312.55,-284.27 1285.55,-266.27 1312.55,-248.27 1339.55,-266.27 1312.55,-284.27" style=""/>
<text text-anchor="middle" x="1312.55" y="-262.07" font-family="Times,serif" font-size="14.00" style="">nr</text>
</g>
<!-- xc&#45;&#45;nr -->
<g id="edge44" class="edge" data-name="xc--nr">

<path fill="none" stroke="black" d="M1196.91,-335.54C1201.23,-332.2 1206,-328.68 1210.55,-325.65 1240.59,-305.6 1277.85,-285.37 1297.98,-274.79" style=""/>
</g>
<!-- vq -->
<g id="node55" class="node" pointer-events="visible" data-name="vq">

<ellipse fill="none" stroke="black" cx="1212.55" cy="-183.52" rx="20.89" ry="20.89" style=""/>
<text text-anchor="middle" x="1212.55" y="-179.32" font-family="Times,serif" font-size="14.00" style="">vq</text>
</g>
<!-- xc&#45;&#45;vq -->
<g id="edge43" class="edge" data-name="xc--vq">

<path fill="none" stroke="black" d="M1185.23,-328.62C1191.16,-297.32 1202.79,-236.01 1208.78,-204.4" style=""/>
</g>
<!-- cb -->
<g id="node56" class="node" pointer-events="visible" data-name="cb">

<ellipse fill="none" stroke="black" cx="1153.55" cy="-183.52" rx="20.3" ry="20.3" style=""/>
<text text-anchor="middle" x="1153.55" y="-179.32" font-family="Times,serif" font-size="14.00" style="">cb</text>
</g>
<!-- xc&#45;&#45;cb -->
<g id="edge45" class="edge" data-name="xc--cb">

<path fill="none" stroke="black" d="M1178.23,-328.62C1172.84,-297.16 1162.25,-235.34 1156.87,-203.89" style=""/>
</g>
<!-- fl&#45;&#45;gk -->
<g id="edge46" class="edge" data-name="fl--gk">

<path fill="none" stroke="black" d="M306.52,-168.82C293.99,-153.25 273.75,-128.1 261.94,-113.43" style=""/>
</g>
<!-- dh -->
<g id="node20" class="node" pointer-events="visible" data-name="dh">

<ellipse fill="none" stroke="black" cx="821.55" cy="-349.02" rx="20.89" ry="20.89" style=""/>
<text text-anchor="middle" x="821.55" y="-344.82" font-family="Times,serif" font-size="14.00" style="">dh</text>
</g>
<!-- dh&#45;&#45;hr -->
<g id="edge47" class="edge" data-name="dh--hr">

<path fill="none" stroke="black" d="M803.08,-338.76C770.87,-322.6 705.03,-289.58 675.48,-274.76" style=""/>
</g>
<!-- qq -->
<g id="node48" class="node" pointer-events="visible" data-name="qq">

<ellipse fill="none" stroke="black" cx="869.55" cy="-20.69" rx="20.89" ry="20.89" style=""/>
<text text-anchor="middle" x="869.55" y="-16.49" font-family="Times,serif" font-size="14.00" style="">qq</text>
</g>
<!-- dh&#45;&#45;qq -->
<g id="edge49" class="edge" data-name="dh--qq">

<path fill="none" stroke="black" d="M839.93,-338.26C874.48,-318.73 948.16,-271.14 976.55,-206.89 1006.79,-138.45 923.13,-63.01 886.14,-34" style=""/>
</g>
<!-- nm -->
<g id="node53" class="node" pointer-events="visible" data-name="nm">

<ellipse fill="none" stroke="black" cx="694.55" cy="-100.76" rx="23.25" ry="23.25" style=""/>
<text text-anchor="middle" x="694.55" y="-96.56" font-family="Times,serif" font-size="14.00" style="">nm</text>
</g>
<!-- dh&#45;&#45;nm -->
<g id="edge48" class="edge" data-name="dh--nm">

<path fill="none" stroke="black" d="M812.21,-329.91C789.07,-285.04 729.19,-168.93 704.96,-121.95" style=""/>
</g>
<!-- jk&#45;&#45;rj -->
<g id="edge51" class="edge" data-name="jk--rj">

<path fill="none" stroke="black" d="M224.68,-249.7C216.48,-235.31 204.37,-214.05 196.23,-199.76" style=""/>
</g>
<!-- jk&#45;&#45;gk -->
<g id="edge50" class="edge" data-name="jk--gk">

<path fill="none" stroke="black" d="M235.62,-247.46C239.33,-215.51 247.07,-148.93 250.65,-118.09" style=""/>
</g>
<!-- tf -->
<g id="node22" class="node" pointer-events="visible" data-name="tf">

<ellipse fill="none" stroke="black" cx="1125.55" cy="-349.02" rx="18" ry="18" style=""/>
<text text-anchor="middle" x="1125.55" y="-344.82" font-family="Times,serif" font-size="14.00" style="">tf</text>
</g>
<!-- tf&#45;&#45;nr -->
<g id="edge53" class="edge" data-name="tf--nr">

<path fill="none" stroke="black" d="M1138.34,-335.9C1142.63,-332.27 1147.58,-328.49 1152.55,-325.65 1199.99,-298.42 1262.42,-280.06 1293.4,-271.97" style=""/>
</g>
<!-- tf&#45;&#45;cb -->
<g id="edge52" class="edge" data-name="tf--cb">

<path fill="none" stroke="black" d="M1128.49,-330.83C1133.74,-300.17 1144.69,-236.23 1150.21,-203.99" style=""/>
</g>
<!-- nv -->
<g id="node57" class="node" pointer-events="visible" data-name="nv">

<ellipse fill="none" stroke="black" cx="1317.55" cy="-20.69" rx="20.89" ry="20.89" style=""/>
<text text-anchor="middle" x="1317.55" y="-16.49" font-family="Times,serif" font-size="14.00" style="">nv</text>
</g>
<!-- tf&#45;&#45;nv -->
<g id="edge54" class="edge" data-name="tf--nv">

<path fill="none" stroke="black" d="M1120.6,-331.27C1111.45,-296.93 1095.35,-217.02 1124.55,-160.14 1161.74,-87.69 1256.42,-44.62 1297.75,-28.73" style=""/>
</g>
<!-- kd -->
<g id="node23" class="node" pointer-events="visible" data-name="kd">

<ellipse fill="none" stroke="black" cx="1323.55" cy="-502.19" rx="20.89" ry="20.89" style=""/>
<text text-anchor="middle" x="1323.55" y="-497.99" font-family="Times,serif" font-size="14.00" style="">kd</text>
</g>
<!-- jh -->
<g id="node29" class="node" pointer-events="visible" data-name="jh">

<ellipse fill="none" stroke="black" cx="1276.55" cy="-426.95" rx="18.6" ry="18.6" style=""/>
<text text-anchor="middle" x="1276.55" y="-422.75" font-family="Times,serif" font-size="14.00" style="">jh</text>
</g>
<!-- kd&#45;&#45;jh -->
<g id="edge57" class="edge" data-name="kd--jh">

<path fill="none" stroke="black" d="M1312.65,-484.2C1304.62,-471.69 1293.81,-454.85 1286.12,-442.86" style=""/>
</g>
<!-- cm -->
<g id="node36" class="node" pointer-events="visible" data-name="cm">

<ellipse fill="none" stroke="black" cx="1412.55" cy="-349.02" rx="22.67" ry="22.67" style=""/>
<text text-anchor="middle" x="1412.55" y="-344.82" font-family="Times,serif" font-size="14.00" style="">cm</text>
</g>
<!-- kd&#45;&#45;cm -->
<g id="edge55" class="edge" data-name="kd--cm">

<path fill="none" stroke="black" d="M1342.33,-492.62C1359.91,-483.55 1385.4,-467.49 1398.55,-445.49 1411.96,-423.06 1414.22,-392.52 1413.95,-372.08" style=""/>
</g>
<!-- kd&#45;&#45;nr -->
<g id="edge56" class="edge" data-name="kd--nr">

<path fill="none" stroke="black" d="M1322.59,-480.84C1320.45,-435.38 1315.32,-326.26 1313.34,-284.2" style=""/>
</g>
<!-- hr&#45;&#45;kv -->
<g id="edge59" class="edge" data-name="hr--kv">

<path fill="none" stroke="black" d="M683.84,-263.22C730.1,-258.45 836.05,-244.06 916.55,-206.89 921.62,-204.55 926.67,-201.26 931.14,-197.91" style=""/>
</g>
<!-- hr&#45;&#45;jd -->
<g id="edge62" class="edge" data-name="hr--jd">

<path fill="none" stroke="black" d="M649.02,-255.37C631.67,-240.46 598.88,-212.3 580.3,-196.33" style=""/>
</g>
<!-- xr -->
<g id="node35" class="node" pointer-events="visible" data-name="xr">

<ellipse fill="none" stroke="black" cx="869.55" cy="-100.76" rx="19.16" ry="19.16" style=""/>
<text text-anchor="middle" x="869.55" y="-96.56" font-family="Times,serif" font-size="14.00" style="">xr</text>
</g>
<!-- hr&#45;&#45;xr -->
<g id="edge63" class="edge" data-name="hr--xr">

<path fill="none" stroke="black" d="M675.65,-257.76C695.66,-247.51 731.7,-227.96 759.55,-206.89 797.89,-177.88 837.31,-136.99 856.9,-115.77" style=""/>
</g>
<!-- rb -->
<g id="node38" class="node" pointer-events="visible" data-name="rb">

<ellipse fill="none" stroke="black" cx="660.55" cy="-183.52" rx="19.16" ry="19.16" style=""/>
<text text-anchor="middle" x="660.55" y="-179.32" font-family="Times,serif" font-size="14.00" style="">rb</text>
</g>
<!-- hr&#45;&#45;rb -->
<g id="edge64" class="edge" data-name="hr--rb">

<path fill="none" stroke="black" d="M660.55,-247.75C660.55,-234.57 660.55,-216.56 660.55,-203.13" style=""/>
</g>
<!-- hh -->
<g id="node44" class="node" pointer-events="visible" data-name="hh">

<polygon fill="none" stroke="black" points="878.55,-201.52 849.52,-183.52 878.55,-165.52 907.58,-183.52 878.55,-201.52" style=""/>
<text text-anchor="middle" x="878.55" y="-179.32" font-family="Times,serif" font-size="14.00" style="">hh</text>
</g>
<!-- hr&#45;&#45;hh -->
<g id="edge58" class="edge" data-name="hr--hh">

<path fill="none" stroke="black" d="M677.29,-259.07C717.57,-244.15 819.59,-206.36 860.84,-191.08" style=""/>
</g>
<!-- hr&#45;&#45;fj -->
<g id="edge65" class="edge" data-name="hr--fj">

<path fill="none" stroke="black" d="M644.6,-258.38C609.45,-243.2 525.59,-206.99 489.98,-191.61" style=""/>
</g>
<!-- hr&#45;&#45;qq -->
<g id="edge61" class="edge" data-name="hr--qq">

<path fill="none" stroke="black" d="M670.07,-254.17C703.77,-214.9 817.43,-82.43 856.35,-37.08" style=""/>
</g>
<!-- hr&#45;&#45;nm -->
<g id="edge66" class="edge" data-name="hr--nm">

<path fill="none" stroke="black" d="M668.28,-252.84C674.97,-241.38 684.23,-223.66 688.55,-206.89 695.71,-179.1 696.34,-145.85 695.76,-124.3" style=""/>
</g>
<!-- xl -->
<g id="node58" class="node" pointer-events="visible" data-name="xl">

<ellipse fill="none" stroke="black" cx="613.55" cy="-100.76" rx="18.6" ry="18.6" style=""/>
<text text-anchor="middle" x="613.55" y="-96.56" font-family="Times,serif" font-size="14.00" style="">xl</text>
</g>
<!-- hr&#45;&#45;xl -->
<g id="edge60" class="edge" data-name="hr--xl">

<path fill="none" stroke="black" d="M653.29,-252.7C646.93,-241.14 637.88,-223.36 632.55,-206.89 622.9,-177.07 617.71,-140.81 615.3,-119.6" style=""/>
</g>
<!-- kv&#45;&#45;xr -->
<g id="edge67" class="edge" data-name="kv--xr">

<path fill="none" stroke="black" d="M932.43,-167.7C918.18,-152.77 896.38,-129.91 882.56,-115.4" style=""/>
</g>
<!-- tp -->
<g id="node31" class="node" pointer-events="visible" data-name="tp">

<ellipse fill="none" stroke="black" cx="18.55" cy="-183.52" rx="18.6" ry="18.6" style=""/>
<text text-anchor="middle" x="18.55" y="-179.32" font-family="Times,serif" font-size="14.00" style="">tp</text>
</g>
<!-- hq&#45;&#45;tp -->
<g id="edge68" class="edge" data-name="hq--tp">

<path fill="none" stroke="black" d="M46.38,-246.95C40.24,-233.17 31.9,-214.46 25.95,-201.12" style=""/>
</g>
<!-- hq&#45;&#45;gk -->
<g id="edge69" class="edge" data-name="hq--gk">

<path fill="none" stroke="black" d="M56.05,-245.15C58.85,-221.76 66.82,-183.39 89.55,-160.14 127.37,-121.45 192.59,-108.31 227.98,-103.91" style=""/>
</g>
<!-- fn -->
<g id="node27" class="node" pointer-events="visible" data-name="fn">

<polygon fill="none" stroke="black" points="1056.55,-367.02 1029.55,-349.02 1056.55,-331.02 1083.55,-349.02 1056.55,-367.02" style=""/>
<text text-anchor="middle" x="1056.55" y="-344.82" font-family="Times,serif" font-size="14.00" style="">fn</text>
</g>
<!-- fn&#45;&#45;nc -->
<g id="edge70" class="edge" data-name="fn--nc">

<path fill="none" stroke="black" d="M1055.13,-331.68C1053.92,-317.76 1052.2,-297.85 1050.99,-283.86" style=""/>
</g>
<!-- fn&#45;&#45;nr -->
<g id="edge71" class="edge" data-name="fn--nr">

<path fill="none" stroke="black" d="M1070.18,-339.76C1078.22,-335.14 1088.72,-329.55 1098.55,-325.65 1167.45,-298.29 1253.73,-279.07 1292.3,-271.21" style=""/>
</g>
<!-- vm&#45;&#45;gl -->
<g id="edge72" class="edge" data-name="vm--gl">

<path fill="none" stroke="black" d="M1549.56,-258.1C1598.16,-242.28 1713.84,-204.61 1758,-190.23" style=""/>
</g>
<!-- vm&#45;&#45;xn -->
<g id="edge73" class="edge" data-name="vm--xn">

<path fill="none" stroke="black" d="M1534.32,-243.56C1544.35,-211.42 1562.98,-151.68 1572.54,-121.02" style=""/>
</g>
<!-- gr -->
<g id="node33" class="node" pointer-events="visible" data-name="gr">

<ellipse fill="none" stroke="black" cx="1238.55" cy="-349.02" rx="19.16" ry="19.16" style=""/>
<text text-anchor="middle" x="1238.55" y="-344.82" font-family="Times,serif" font-size="14.00" style="">gr</text>
</g>
<!-- jh&#45;&#45;gr -->
<g id="edge75" class="edge" data-name="jh--gr">

<path fill="none" stroke="black" d="M1268.49,-409.84C1262.13,-397.13 1253.28,-379.46 1246.86,-366.63" style=""/>
</g>
<!-- jh&#45;&#45;nr -->
<g id="edge74" class="edge" data-name="jh--nr">

<path fill="none" stroke="black" d="M1280.54,-408.36C1287.68,-376.89 1302.51,-311.5 1309.18,-282.12" style=""/>
</g>
<!-- mz&#45;&#45;gl -->
<g id="edge77" class="edge" data-name="mz--gl">

<path fill="none" stroke="black" d="M1647.26,-251.77C1651.52,-248.72 1656.13,-245.59 1660.55,-242.89 1694.77,-222.03 1737.36,-201.8 1759.88,-191.52" style=""/>
</g>
<!-- mz&#45;&#45;dd -->
<g id="edge76" class="edge" data-name="mz--dd">

<path fill="none" stroke="black" d="M1636.37,-244.23C1646.71,-212.32 1666.22,-152.13 1676.25,-121.2" style=""/>
</g>
<!-- tp&#45;&#45;gk -->
<g id="edge78" class="edge" data-name="tp--gk">

<path fill="none" stroke="black" d="M33.07,-171.23C38.62,-167.3 45.16,-163.14 51.55,-160.14 113.54,-131.01 193.22,-113.13 230.92,-105.72" style=""/>
</g>
<!-- tp&#45;&#45;cc -->
<g id="edge79" class="edge" data-name="tp--cc">

<path fill="none" stroke="black" d="M33.54,-172.21C75.4,-143.44 193.29,-62.42 236.45,-32.76" style=""/>
</g>
<!-- cf -->
<g id="node32" class="node" pointer-events="visible" data-name="cf">

<ellipse fill="none" stroke="black" cx="1370.55" cy="-426.95" rx="18.58" ry="18.58" style=""/>
<text text-anchor="middle" x="1370.55" y="-422.75" font-family="Times,serif" font-size="14.00" style="">cf</text>
</g>
<!-- cf&#45;&#45;cm -->
<g id="edge81" class="edge" data-name="cf--cm">

<path fill="none" stroke="black" d="M1379.25,-410.21C1385.79,-398.4 1394.77,-382.15 1401.77,-369.51" style=""/>
</g>
<!-- cf&#45;&#45;nr -->
<g id="edge80" class="edge" data-name="cf--nr">

<path fill="none" stroke="black" d="M1365.39,-408.75C1359.24,-388.65 1348.43,-354.46 1337.55,-325.65 1331.63,-309.97 1323.92,-292.33 1318.64,-280.58" style=""/>
</g>
<!-- gr&#45;&#45;nr -->
<g id="edge82" class="edge" data-name="gr--nr">

<path fill="none" stroke="black" d="M1251.1,-334.32C1265.62,-318.48 1289.22,-292.73 1302.55,-278.18" style=""/>
</g>
<!-- gr&#45;&#45;vq -->
<g id="edge83" class="edge" data-name="gr--vq">

<path fill="none" stroke="black" d="M1239.31,-329.59C1239.82,-308.44 1239.5,-272.82 1233.55,-242.89 1230.82,-229.16 1225.44,-214.32 1220.82,-203.04" style=""/>
</g>
<!-- jd&#45;&#45;xl -->
<g id="edge84" class="edge" data-name="jd--xl">

<path fill="none" stroke="black" d="M575.61,-166.95C583.93,-152.65 596.2,-131.57 604.51,-117.29" style=""/>
</g>
<!-- xr&#45;&#45;qq -->
<g id="edge85" class="edge" data-name="xr--qq">

<path fill="none" stroke="black" d="M869.55,-81.26C869.55,-69.45 869.55,-54.13 869.55,-41.98" style=""/>
</g>
<!-- cm&#45;&#45;nr -->
<g id="edge86" class="edge" data-name="cm--nr">

<path fill="none" stroke="black" d="M1395.13,-333.96C1374.87,-317.6 1341.98,-291.03 1324.44,-276.87" style=""/>
</g>
<!-- fh -->
<g id="node37" class="node" pointer-events="visible" data-name="fh">

<polygon fill="none" stroke="black" points="1552.55,-367.02 1525.55,-349.02 1552.55,-331.02 1579.55,-349.02 1552.55,-367.02" style=""/>
<text text-anchor="middle" x="1552.55" y="-344.82" font-family="Times,serif" font-size="14.00" style="">fh</text>
</g>
<!-- fh&#45;&#45;nc -->
<g id="edge87" class="edge" data-name="fh--nc">

<path fill="none" stroke="black" d="M1540.57,-338.74C1533.87,-334.04 1525.15,-328.69 1516.55,-325.65 1474.38,-310.72 1162.6,-278.61 1073.35,-269.64" style=""/>
</g>
<!-- fh&#45;&#45;gl -->
<g id="edge88" class="edge" data-name="fh--gl">

<path fill="none" stroke="black" d="M1565.05,-339.01C1571.76,-334.5 1580.33,-329.25 1588.55,-325.65 1643.46,-301.58 1671.63,-326.97 1718.55,-289.65 1734.23,-277.17 1758.66,-223.75 1769.74,-198.22" style=""/>
</g>
<!-- rb&#45;&#45;nm -->
<g id="edge90" class="edge" data-name="rb--nm">

<path fill="none" stroke="black" d="M667.76,-165.39C673.02,-152.89 680.18,-135.88 685.78,-122.59" style=""/>
</g>
<!-- rb&#45;&#45;xl -->
<g id="edge89" class="edge" data-name="rb--xl">

<path fill="none" stroke="black" d="M651.26,-166.56C642.97,-152.31 630.89,-131.56 622.65,-117.41" style=""/>
</g>
<!-- nc&#45;&#45;hh -->
<g id="edge92" class="edge" data-name="nc--hh">

<path fill="none" stroke="black" d="M1032.45,-258.53C1006.84,-248.26 957.18,-227.68 916.55,-206.89 908.37,-202.71 899.51,-197.53 892.4,-193.21" style=""/>
</g>
<!-- rx -->
<g id="node60" class="node" pointer-events="visible" data-name="rx">

<ellipse fill="none" stroke="black" cx="1050.55" cy="-183.52" rx="27" ry="18" style=""/>
<text text-anchor="middle" x="1050.55" y="-179.32" font-family="Times,serif" font-size="14.00" style="">rx</text>
</g>
<!-- nc&#45;&#45;rx -->
<g id="edge91" class="edge" data-name="nc--rx">

<path fill="none" stroke="black" d="M1049.76,-248.14C1049.93,-234.53 1050.16,-215.57 1050.33,-201.9" style=""/>
</g>
<!-- mp&#45;&#45;gk -->
<g id="edge93" class="edge" data-name="mp--gk">

<path fill="none" stroke="black" d="M357.69,-169.12C353.4,-166.13 348.84,-163 344.55,-160.14 317.32,-141.99 284.88,-121.71 266.7,-110.47" style=""/>
</g>
<!-- nr&#45;&#45;fd -->
<g id="edge94" class="edge" data-name="nr--fd">

<path fill="none" stroke="black" d="M1323.58,-255.37C1339.92,-240.71 1370.53,-213.25 1388.46,-197.16" style=""/>
</g>
<!-- df -->
<g id="node49" class="node" pointer-events="visible" data-name="df">

<ellipse fill="none" stroke="black" cx="1364.55" cy="-100.76" rx="19.16" ry="19.16" style=""/>
<text text-anchor="middle" x="1364.55" y="-96.56" font-family="Times,serif" font-size="14.00" style="">df</text>
</g>
<!-- nr&#45;&#45;df -->
<g id="edge97" class="edge" data-name="nr--df">

<path fill="none" stroke="black" d="M1317.27,-250.89C1321.15,-239.08 1326.74,-221.92 1331.55,-206.89 1341.39,-176.1 1352.62,-140.15 1359.12,-119.27" style=""/>
</g>
<!-- nr&#45;&#45;vq -->
<g id="edge96" class="edge" data-name="nr--vq">

<path fill="none" stroke="black" d="M1300.68,-255.69C1282.78,-241.23 1248.83,-213.81 1228.69,-197.55" style=""/>
</g>
<!-- nr&#45;&#45;cb -->
<g id="edge95" class="edge" data-name="nr--cb">

<path fill="none" stroke="black" d="M1295.5,-259.1C1270.04,-249.56 1220.97,-229.9 1182.55,-206.89 1177.86,-204.08 1173.04,-200.64 1168.72,-197.3" style=""/>
</g>
<!-- nr&#45;&#45;nv -->
<g id="edge98" class="edge" data-name="nr--nv">

<path fill="none" stroke="black" d="M1312.9,-248.14C1313.8,-204.39 1316.17,-88.69 1317.13,-41.83" style=""/>
</g>
<!-- gl&#45;&#45;mj -->
<g id="edge100" class="edge" data-name="gl--mj">

<path fill="none" stroke="black" d="M1775.55,-164.99C1775.55,-152.56 1775.55,-135.82 1775.55,-122.69" style=""/>
</g>
<!-- gl&#45;&#45;xn -->
<g id="edge99" class="edge" data-name="gl--xn">

<path fill="none" stroke="black" d="M1759.43,-175.91C1723.4,-161.14 1636.51,-125.52 1597.76,-109.64" style=""/>
</g>
<!-- gl&#45;&#45;dd -->
<g id="edge101" class="edge" data-name="gl--dd">

<path fill="none" stroke="black" d="M1764.14,-172.61C1747.56,-158.21 1716.72,-131.44 1698.07,-115.25" style=""/>
</g>
<!-- gl&#45;&#45;hx -->
<g id="edge102" class="edge" data-name="gl--hx">

<path fill="none" stroke="black" d="M1788.82,-173.87C1811.44,-159.15 1857.42,-129.2 1882.43,-112.91" style=""/>
</g>
<!-- rj&#45;&#45;gk -->
<g id="edge103" class="edge" data-name="rj--gk">

<path fill="none" stroke="black" d="M198.57,-168.82C211.11,-153.25 231.35,-128.1 243.16,-113.43" style=""/>
</g>
<!-- fd&#45;&#45;df -->
<g id="edge104" class="edge" data-name="fd--df">

<path fill="none" stroke="black" d="M1394.67,-165.78C1388.15,-151.93 1378.93,-132.33 1372.41,-118.47" style=""/>
</g>
<!-- gk&#45;&#45;cc -->
<g id="edge105" class="edge" data-name="gk--cc">

<path fill="none" stroke="black" d="M252.55,-82.44C252.55,-70.13 252.55,-53.6 252.55,-40.89" style=""/>
</g>
<!-- df&#45;&#45;nv -->
<g id="edge106" class="edge" data-name="df--nv">

<path fill="none" stroke="black" d="M1355.04,-83.96C1347.2,-70.95 1336.11,-52.53 1328.03,-39.1" style=""/>
</g>
</g>
</svg>